<svg xmlns="http://www.w3.org/2000/svg" xmlns:xlink="http://www.w3.org/1999/xlink" width="1280" height="813" viewBox="0 0 1280 813"><defs><linearGradient id="b" x1="37.329%" x2="68.604%" y1="62.864%" y2="18.272%"><stop offset="0%" stop-color="#39BFA8"/><stop offset="100%" stop-color="#60CBB6"/></linearGradient><path id="a" d="M0 0h1280v813H0z"/></defs><g fill="none" fill-rule="evenodd"><mask id="c" fill="#fff"><use xlink:href="#a"/></mask><use fill="url(#b)" xlink:href="#a"/><g mask="url(#c)"><path fill="#60CBB6" fill-opacity=".083" fill-rule="nonzero" d="M-251 1023V792L1319.5-6v230z"/><path fill="#41A38E" fill-opacity=".083" fill-rule="nonzero" d="M156 815v10l1173.5-596v-10z"/><path fill="#8DECD9" d="M1045.5 163.507c0-1.246.89-2.722 1.993-3.298l52.014-27.168c1.1-.575 2.88-.582 3.987-.009l52.512 27.186c1.101.57 1.994 2.047 1.994 3.29v53.985c0 1.246-.887 2.716-1.994 3.29l-52.512 27.185c-1.101.57-2.885.567-3.987-.009l-52.014-27.168c-1.1-.575-1.993-2.056-1.993-3.298v-53.986z"/><path fill="#41A38E" fill-rule="nonzero" d="M1055.005 161.362l20.17 10.443 21.491-11.126-19.83-10.73a40262.67 40262.67 0 0 1-21.831 11.413zm26.639-13.929l19.854 10.744 20.39-10.555-20.463-10.593c.045.015-9.153 4.841-19.781 10.404zm45.137 2.722l-20.497 10.612 20.956 11.34 20.972-10.857-21.43-11.095zm26.719 18.492l-21.5 11.13v48.372c11.334-5.875 21.5-11.137 21.5-11.137v-48.365zM1127 230.74v-48.375l-21 10.872v48.41c4.793-2.5 12.86-6.687 21-10.907zm-30 10.832v-48.335l-21-10.872v48.238l21 10.969zm-26-13.58v-48.216l-21-10.871v48.118l21 10.968zm-25.59-71.773l52.014-27.168c2.401-1.254 5.73-1.263 8.14-.016l52.51 27.185c2.597 1.345 4.426 4.365 4.426 7.286v53.986c0 2.926-1.824 5.939-4.425 7.286l-52.512 27.185c-2.405 1.245-5.738 1.238-8.14-.016l-52.013-27.168c-2.588-1.352-4.41-4.37-4.41-7.287v-53.986c0-2.92 1.82-5.934 4.41-7.287zm76.998 18.389l-20.956-11.34-21.382 11.07 21.43 11.094 20.908-10.824z"/><path fill="#8DECD9" d="M904 202.01c0-1.662 1.193-3.63 2.67-4.398l69.66-36.224c1.475-.767 3.863-.768 5.34 0l69.66 36.224c1.475.767 2.67 2.725 2.67 4.398v71.98c0 1.662-1.193 3.63-2.67 4.398l-69.66 36.224c-1.475.767-3.863.768-5.34 0l-69.66-36.224c-1.475-.767-2.67-2.725-2.67-4.398v-71.98z"/><path fill="#41A38E" fill-rule="nonzero" d="M910 208.883v64.474l27 14.04v-64.474l-27-14.04zm7.004-9.883l27.055 14.068 28.518-14.83-26.469-14.386A72274.783 72274.783 0 0 1 917.004 199zm35.52-18.49l26.474 14.39 27.056-14.07-27.153-14.119c.054.015-12.194 6.41-26.377 13.8zm60.032 3.702l-27.2 14.144 27.81 15.115L1040.995 199l-28.439-14.788zm35.444 24.67l-27 14.04v64.484c14.414-7.504 27-14.049 27-14.049v-64.474zm-33 81.647v-64.486l-30 15.6v64.531c6.795-3.556 18.506-9.66 30-15.645zm-42 15.588v-64.474l-30-15.6v64.474l30 15.6zM898 202.01c0-3.9 2.44-7.921 5.901-9.721l69.662-36.224c3.21-1.67 7.664-1.67 10.874 0l69.662 36.224c3.462 1.8 5.901 5.812 5.901 9.72v71.981c0 3.9-2.44 7.921-5.901 9.721l-69.662 36.224c-3.21 1.67-7.664 1.67-10.874 0L903.9 283.711c-3.462-1.8-5.901-5.812-5.901-9.72V202.01zm108.745 14.8l-27.81-15.115-28.373 14.754L979 231.237l27.745-14.427z"/><path fill="#8DECD9" d="M812 248.003c0-.554.393-1.207.89-1.466l23.22-12.074c.492-.256 1.283-.259 1.78 0l23.22 12.074c.492.256.89.914.89 1.466v23.994c0 .554-.393 1.207-.89 1.466l-23.22 12.074c-.492.256-1.283.259-1.78 0l-23.22-12.074c-.492-.256-.89-.914-.89-1.466v-23.994z"/><path fill="#41A38E" fill-rule="nonzero" d="M814 250.294v21.492l9 4.68v-21.492l-9-4.68zm2.335-3.294l9.018 4.69 9.506-4.944-8.822-4.795a19720 19720 0 0 1-9.702 5.049zm11.84-6.163l8.824 4.796 9.019-4.69-9.05-4.706c.017.006-4.065 2.137-8.793 4.6zm20.01 1.234l-9.066 4.714 9.27 5.039 9.276-4.824-9.48-4.93zM860 250.294l-9 4.68v21.494l9-4.682v-21.492zm-11 27.215v-21.495l-10 5.2v21.51a6155.58 6155.58 0 0 1 10-5.215zm-14 5.197v-21.492l-10-5.2v21.492l10 5.2zm-25-34.703c0-1.301.809-2.638 1.967-3.24l23.22-12.075c1.072-.557 2.551-.558 3.625 0l23.22 12.075c1.154.6 1.968 1.942 1.968 3.24v23.994c0 1.301-.809 2.638-1.967 3.24l-23.22 12.075c-1.072.557-2.551.558-3.625 0l-23.22-12.075c-1.154-.6-1.968-1.942-1.968-3.24v-23.994zm36.248 4.934l-9.27-5.039-9.457 4.918 9.479 4.93 9.248-4.81z"/><path fill="#8DECD9" d="M812 222.003c0-.554.393-1.207.89-1.466l23.22-12.074c.492-.256 1.283-.259 1.78 0l23.22 12.074c.492.256.89.914.89 1.466v23.994c0 .554-.393 1.207-.89 1.466l-23.22 12.074c-.492.256-1.283.259-1.78 0l-23.22-12.074c-.492-.256-.89-.914-.89-1.466v-23.994z"/><path fill="#41A38E" fill-rule="nonzero" d="M814 224.294v21.492l9 4.68v-21.492l-9-4.68zm2.335-3.294l9.018 4.69 9.506-4.944-8.822-4.795a19720 19720 0 0 1-9.702 5.049zm11.84-6.163l8.824 4.796 9.019-4.69-9.05-4.706c.017.006-4.065 2.137-8.793 4.6zm20.01 1.234l-9.066 4.714 9.27 5.039 9.276-4.824-9.48-4.93zM860 224.294l-9 4.68v21.494l9-4.682v-21.492zm-11 27.215v-21.495l-10 5.2v21.51a6155.58 6155.58 0 0 1 10-5.215zm-14 5.197v-21.492l-10-5.2v21.492l10 5.2zm-25-34.703c0-1.301.809-2.638 1.967-3.24l23.22-12.075c1.072-.557 2.551-.558 3.625 0l23.22 12.075c1.154.6 1.968 1.942 1.968 3.24v23.994c0 1.301-.809 2.638-1.967 3.24l-23.22 12.075c-1.072.557-2.551.558-3.625 0l-23.22-12.075c-1.154-.6-1.968-1.942-1.968-3.24v-23.994zm36.248 4.934l-9.27-5.039-9.457 4.918 9.479 4.93 9.248-4.81z"/><path fill="#8DECD9" d="M812 195.003c0-.554.393-1.207.89-1.466l23.22-12.074c.492-.256 1.283-.259 1.78 0l23.22 12.074c.492.256.89.914.89 1.466v23.994c0 .554-.393 1.207-.89 1.466l-23.22 12.074c-.492.256-1.283.259-1.78 0l-23.22-12.074c-.492-.256-.89-.914-.89-1.466v-23.994z"/><path fill="#41A38E" fill-rule="nonzero" d="M814 197.294v21.492l9 4.68v-21.492l-9-4.68zm2.335-3.294l9.018 4.69 9.506-4.944-8.822-4.795a19720 19720 0 0 1-9.702 5.049zm11.84-6.163l8.824 4.796 9.019-4.69-9.05-4.706c.017.006-4.065 2.137-8.793 4.6zm20.01 1.234l-9.066 4.714 9.27 5.039 9.276-4.824-9.48-4.93zM860 197.294l-9 4.68v21.494l9-4.682v-21.492zm-11 27.215v-21.495l-10 5.2v21.51a6155.58 6155.58 0 0 1 10-5.215zm-14 5.197v-21.492l-10-5.2v21.492l10 5.2zm-25-34.703c0-1.301.809-2.638 1.967-3.24l23.22-12.075c1.072-.557 2.551-.558 3.625 0l23.22 12.075c1.154.6 1.968 1.942 1.968 3.24v23.994c0 1.301-.809 2.638-1.967 3.24l-23.22 12.075c-1.072.557-2.551.558-3.625 0l-23.22-12.075c-1.154-.6-1.968-1.942-1.968-3.24v-23.994zm36.248 4.934l-9.27-5.039-9.457 4.918 9.479 4.93 9.248-4.81z"/><path fill="#8DECD9" d="M824 311.003c0-.554.393-1.207.89-1.466l23.22-12.074c.492-.256 1.283-.259 1.78 0l23.22 12.074c.492.256.89.914.89 1.466v23.994c0 .554-.393 1.207-.89 1.466l-23.22 12.074c-.492.256-1.283.259-1.78 0l-23.22-12.074c-.492-.256-.89-.914-.89-1.466v-23.994z"/><path fill="#41A38E" fill-rule="nonzero" d="M826 313.294v21.492l9 4.68v-21.492l-9-4.68zm2.335-3.294l9.018 4.69 9.506-4.944-8.822-4.795a19720 19720 0 0 1-9.702 5.049zm11.84-6.163l8.824 4.796 9.019-4.69-9.05-4.706c.017.006-4.065 2.137-8.793 4.6zm20.01 1.234l-9.066 4.714 9.27 5.039 9.276-4.824-9.48-4.93zM872 313.294l-9 4.68v21.494l9-4.682v-21.492zm-11 27.215v-21.495l-10 5.2v21.51a6155.58 6155.58 0 0 1 10-5.215zm-14 5.197v-21.492l-10-5.2v21.492l10 5.2zm-25-34.703c0-1.301.809-2.638 1.967-3.24l23.22-12.075c1.072-.557 2.551-.558 3.625 0l23.22 12.075c1.154.6 1.968 1.942 1.968 3.24v23.994c0 1.301-.809 2.638-1.967 3.24l-23.22 12.075c-1.072.557-2.551.558-3.625 0l-23.22-12.075c-1.154-.6-1.968-1.942-1.968-3.24v-23.994zm36.248 4.934l-9.27-5.039-9.457 4.918 9.479 4.93 9.248-4.81z"/><path fill="#8DECD9" d="M824 398.003c0-.554.393-1.207.89-1.466l23.22-12.074c.492-.256 1.283-.259 1.78 0l23.22 12.074c.492.256.89.914.89 1.466v23.994c0 .554-.393 1.207-.89 1.466l-23.22 12.074c-.492.256-1.283.259-1.78 0l-23.22-12.074c-.492-.256-.89-.914-.89-1.466v-23.994z"/><path fill="#41A38E" fill-rule="nonzero" d="M826 400.294v21.492l9 4.68v-21.492l-9-4.68zm2.335-3.294l9.018 4.69 9.506-4.944-8.822-4.795a19720 19720 0 0 1-9.702 5.049zm11.84-6.163l8.824 4.796 9.019-4.69-9.05-4.706c.017.006-4.065 2.137-8.793 4.6zm20.01 1.234l-9.066 4.714 9.27 5.039 9.276-4.824-9.48-4.93zM872 400.294l-9 4.68v21.494l9-4.682v-21.492zm-11 27.215v-21.495l-10 5.2v21.51a6155.58 6155.58 0 0 1 10-5.215zm-14 5.197v-21.492l-10-5.2v21.492l10 5.2zm-25-34.703c0-1.301.809-2.638 1.967-3.24l23.22-12.075c1.072-.557 2.551-.558 3.625 0l23.22 12.075c1.154.6 1.968 1.942 1.968 3.24v23.994c0 1.301-.809 2.638-1.967 3.24l-23.22 12.075c-1.072.557-2.551.558-3.625 0l-23.22-12.075c-1.154-.6-1.968-1.942-1.968-3.24v-23.994zm36.248 4.934l-9.27-5.039-9.457 4.918 9.479 4.93 9.248-4.81z"/><path fill="#8DECD9" d="M1022 312.003c0-.554.393-1.207.89-1.466l23.22-12.074c.492-.256 1.283-.259 1.78 0l23.22 12.074c.492.256.89.914.89 1.466v23.994c0 .554-.393 1.207-.89 1.466l-23.22 12.074c-.492.256-1.283.259-1.78 0l-23.22-12.074c-.492-.256-.89-.914-.89-1.466v-23.994z"/><path fill="#41A38E" fill-rule="nonzero" d="M1024 314.294v21.492l9 4.68v-21.492l-9-4.68zm2.335-3.294l9.018 4.69 9.506-4.944-8.822-4.795a19720 19720 0 0 1-9.702 5.049zm11.84-6.163l8.824 4.796 9.019-4.69-9.05-4.706c.017.006-4.065 2.137-8.793 4.6zm20.01 1.234l-9.066 4.714 9.27 5.039 9.276-4.824-9.48-4.93zm11.815 8.223l-9 4.68v21.494l9-4.682v-21.492zm-11 27.215v-21.495l-10 5.2v21.51a6155.58 6155.58 0 0 1 10-5.215zm-14 5.197v-21.492l-10-5.2v21.492l10 5.2zm-25-34.703c0-1.301.809-2.638 1.967-3.24l23.22-12.075c1.072-.557 2.551-.558 3.625 0l23.22 12.075c1.154.6 1.968 1.942 1.968 3.24v23.994c0 1.301-.809 2.638-1.967 3.24l-23.22 12.075c-1.072.557-2.551.558-3.625 0l-23.22-12.075c-1.154-.6-1.968-1.942-1.968-3.24v-23.994zm36.248 4.934l-9.27-5.039-9.457 4.918 9.479 4.93 9.248-4.81z"/><path fill="#8DECD9" d="M762 301.003c0-.554.393-1.207.89-1.466l23.22-12.074c.492-.256 1.283-.259 1.78 0l23.22 12.074c.492.256.89.914.89 1.466v23.994c0 .554-.393 1.207-.89 1.466l-23.22 12.074c-.492.256-1.283.259-1.78 0l-23.22-12.074c-.492-.256-.89-.914-.89-1.466v-23.994z"/><path fill="#41A38E" fill-rule="nonzero" d="M764 303.294v21.492l9 4.68v-21.492l-9-4.68zm2.335-3.294l9.018 4.69 9.506-4.944-8.822-4.795a19720 19720 0 0 1-9.702 5.049zm11.84-6.163l8.824 4.796 9.019-4.69-9.05-4.706c.017.006-4.065 2.137-8.793 4.6zm20.01 1.234l-9.066 4.714 9.27 5.039 9.276-4.824-9.48-4.93zM810 303.294l-9 4.68v21.494l9-4.682v-21.492zm-11 27.215v-21.495l-10 5.2v21.51a6155.58 6155.58 0 0 1 10-5.215zm-14 5.197v-21.492l-10-5.2v21.492l10 5.2zm-25-34.703c0-1.301.809-2.638 1.967-3.24l23.22-12.075c1.072-.557 2.551-.558 3.625 0l23.22 12.075c1.154.6 1.968 1.942 1.968 3.24v23.994c0 1.301-.809 2.638-1.967 3.24l-23.22 12.075c-1.072.557-2.551.558-3.625 0l-23.22-12.075c-1.154-.6-1.968-1.942-1.968-3.24v-23.994zm36.248 4.934l-9.27-5.039-9.457 4.918 9.479 4.93 9.248-4.81z"/><g stroke="#41A38E"><path fill="#8DECD9" stroke-width="6" d="M894 345.113c0-.823.589-1.799 1.335-2.189l34.83-18.226c.737-.385 1.924-.39 2.67 0l34.83 18.226c.737.386 1.335 1.38 1.335 2.19v36.263c0 .824-.589 1.8-1.335 2.19l-34.83 18.225c-.737.386-1.924.39-2.67 0l-34.83-18.226c-.737-.385-1.335-1.38-1.335-2.189v-36.264z"/><path stroke-width="6" d="M969 343.623l-37.5 19.622-37.5-19.622"/><path stroke-width="3" d="M951 333.057l-37.5 19.622"/><path stroke-width="5" d="M931.5 363.245v39.246"/><path stroke-width="3" d="M912.508 354v40m38.992-41.32v39.245"/><path fill="#54D2B6" stroke-width="3" d="M912.182 332.712l37.136 20.312"/></g><g stroke="#41A38E"><path fill="#8DECD9" stroke-width="6" d="M731 361.113c0-.823.589-1.799 1.335-2.189l34.83-18.226c.737-.385 1.924-.39 2.67 0l34.83 18.226c.737.386 1.335 1.38 1.335 2.19v36.263c0 .824-.589 1.8-1.335 2.19l-34.83 18.225c-.737.386-1.924.39-2.67 0l-34.83-18.226c-.737-.385-1.335-1.38-1.335-2.189v-36.264z"/><path stroke-width="6" d="M806 359.623l-37.5 19.622-37.5-19.622"/><path stroke-width="3" d="M788 349.057l-37.5 19.622"/><path stroke-width="5" d="M768.5 379.245v39.246"/><path stroke-width="3" d="M749.508 370v40m38.992-41.32v39.245"/><path fill="#54D2B6" stroke-width="3" d="M749.182 348.712l37.136 20.312"/></g></g></g></svg>