<svg xmlns="http://www.w3.org/2000/svg" xmlns:xlink="http://www.w3.org/1999/xlink" width="111" height="144" viewBox="0 0 111 144">
    <defs>
        <path id="a" d="M25.568 32.053l5.56 3.391 4.928 2.714L66.023 58 85.403.806 0 18.316z"/>
        <path id="b" d="M36.034 38.158L30.33 58l-4.789-25.947L87 0z"/>
    </defs>
    <g fill="none" fill-rule="evenodd">
        <circle cx="72" cy="72" r="72" fill="#FFEFF0"/>
        <g fill-rule="nonzero">
            <g transform="matrix(-1 0 0 1 121 45)">
                <use fill="#FBA9AC" fill-rule="evenodd" xlink:href="#a"/>
                <path stroke="#B88081" stroke-width="1.6" d="M25.17 32.747L-2.324 17.976 86.61-.258 66.447 59.24l-.866-.573-29.91-19.808-4.96-2.732-5.541-3.38z"/>
            </g>
            <g transform="matrix(-1 0 0 1 121 45)">
                <use fill="#E09B9D" fill-rule="evenodd" xlink:href="#b"/>
                <path stroke="#B88081" stroke-width="1.6" d="M78.629 5.268l-52.194 27.22L30.5 54.514l4.84-16.834 43.289-32.41z"/>
            </g>
            <path fill="#B88081" d="M85.88 83.667L90.67 103 73.908 90.917z"/>
        </g>
    </g>
</svg>
