<svg xmlns="http://www.w3.org/2000/svg" width="101" height="29" viewBox="0 0 101 29"><g fill="none" fill-rule="evenodd"><g stroke="#FFF"><path stroke-width="2" d="M1 8.126c0-.278.196-.607.445-.74l11.61-6.15c.246-.13.641-.132.89 0l11.61 6.15a.928.928 0 0 1 .445.74v12.239a.914.914 0 0 1-.445.739l-11.61 6.15a1.05 1.05 0 0 1-.89 0l-11.61-6.15a.925.925 0 0 1-.445-.74V8.127z"/><path stroke-width="2" d="M26 7.623l-12.5 6.622L1 7.623"/><path d="M20 4.057L7.5 10.679"/><path stroke-width="2" d="M13.5 14.245v13.246"/><path d="M7 11.189v13.245M20 10.68v13.245"/><path fill="#54D2B6" d="M7.06 3.94l12.38 6.856"/></g><path d="M49.047 12v9H51V8h-1.953L44.5 14.5 39.988 8H38v13h1.953L40 12l3.75 5h1.508l3.79-5zM54 21h2V8h-2v13zm7 0V10h-3V8h8v2h-3v11h-2zm9 0V10h-3V8h8v2h-3v11h-2zm12.5 0a6.5 6.5 0 1 1 0-13 6.5 6.5 0 0 1 0 13zm0-2a4.5 4.5 0 1 0 0-9 4.5 4.5 0 0 0 0 9zm18.5-3v-2h-4v-4h-2v4h-4v2h4v4h2v-4z" fill="#FFF"/></g></svg>