<?xml version="1.0" encoding="UTF-8"?>
<svg width="101px" height="29px" viewBox="0 0 101 29" version="1.1" xmlns="http://www.w3.org/2000/svg" xmlns:xlink="http://www.w3.org/1999/xlink">
    <!-- Generator: sketchtool 46.2 (44496) - http://www.bohemiancoding.com/sketch -->
    <title>B7AFE6FF-8AA8-4A4F-AA99-21BC1C150BA5</title>
    <desc>Created with sketchtool.</desc>
    <defs></defs>
    <g id="Page-1" stroke="none" stroke-width="1" fill="none" fill-rule="evenodd">
        <g id="Home-/-Desktop" transform="translate(-24.000000, -28.000000)">
            <g id="Group-17">
                <g id="Navigation">
                    <g id="Logo" transform="translate(25.000000, 29.000000)">
                        <g id="Group-8" stroke="#FFFFFF">
                            <path d="M0,7.12569841 C0,6.84786776 0.19634515,6.51861563 0.444881618,6.38693819 L12.0551184,0.235703318 C12.3008197,0.10552797 12.6963452,0.104025883 12.9448816,0.235703318 L24.5551184,6.38693819 C24.8008197,6.51711354 25,6.8525382 25,7.12569841 L25,19.3648676 C25,19.6426983 24.8036548,19.9719504 24.5551184,20.1036278 L12.9448816,26.2548627 C12.6991803,26.3850381 12.3036548,26.3865402 12.0551184,26.2548627 L0.444881618,20.1036278 C0.199180285,19.9734525 0,19.6380278 0,19.3648676 L0,7.12569841 Z" id="Path-2" stroke-width="2"></path>
                            <polyline id="Path-2-Copy" stroke-width="2" points="25 6.62264151 12.5 13.245283 0 6.62264151"></polyline>
                            <path d="M19,3.05660377 L6.5,9.67924528" id="Path-2-Copy-4"></path>
                            <path d="M12.5,13.245283 L12.5,26.490566" id="Path-3" stroke-width="2"></path>
                            <path d="M6,10.1886792 L6,23.4339623" id="Path-3-Copy-2"></path>
                            <path d="M19,9.67924528 L19,22.9245283" id="Path-3-Copy-3"></path>
                            <path d="M6.06067224,2.9403429 L18.4393278,9.79550615" id="Path-2-Copy-5" fill="#54D2B6"></path>
                        </g>
                        <g id="Name" transform="translate(37.000000, 7.000000)" fill="#FFFFFF">
                            <path d="M11.0473896,4 L11.0473896,13 L13,13 L13,7.0599776e-14 L11.0473896,7.0599776e-14 L6.5,6.5 L1.98795181,5.68434189e-14 L0,7.0599776e-14 L0,13 L1.95261044,13 L2,4 L5.75,9 L7.25789826,9 L11.0473896,4 Z M16,13 L18,13 L18,0 L16,0 L16,13 Z M23,13 L23,2 L20,2 L20,0 L28,0 L28,2 L25,2 L25,13 L23,13 Z M32,13 L32,2 L29,2 L29,0 L37,0 L37,2 L34,2 L34,13 L32,13 Z" id="MITTO"></path>
                            <path d="M44.5,13 C40.9101491,13 38,10.0898509 38,6.5 C38,2.91014913 40.9101491,0 44.5,0 C48.0898509,0 51,2.91014913 51,6.5 C51,10.0898509 48.0898509,13 44.5,13 Z M44.5,11 C46.9852814,11 49,8.98528137 49,6.5 C49,4.01471863 46.9852814,2 44.5,2 C42.0147186,2 40,4.01471863 40,6.5 C40,8.98528137 42.0147186,11 44.5,11 Z" id="Oval"></path>
                            <polygon id="+" points="63 8 63 6 59 6 59 2 57 2 57 6 53 6 53 8 57 8 57 12 59 12 59 8"></polygon>
                        </g>
                    </g>
                </g>
            </g>
        </g>
    </g>
</svg>