<svg xmlns="http://www.w3.org/2000/svg" width="100" height="23" viewBox="0 0 100 23"><g fill="#973E1B" fill-rule="evenodd"><path fill-rule="nonzero" d="M46.676 4.602c.773-.493 1.761.535 1.31 1.308-.218.567-1.015.783-1.466.367-.565-.384-.486-1.405.156-1.675zm20.241-.101c.495-.003.99-.003 1.486-.003v13.873h-1.48a20.444 20.444 0 0 0-.043-1.509c-1.072 1.927-3.941 2.353-5.581.924-1.172-1.008-1.528-2.648-1.467-4.132.013-1.506.508-3.107 1.707-4.09 1.558-1.283 4.32-1.209 5.388.676-.02-1.915-.003-3.827-.01-5.74zm-3.2 5.484c-1.19.188-1.995 1.274-2.217 2.396-.293 1.352-.24 2.918.612 4.067.921 1.224 2.955 1.251 3.94.094.672-.698.863-1.699.868-2.635.007-.989.091-2.103-.565-2.928-.58-.825-1.662-1.197-2.639-.994zM28.226 5.24c.558.002 1.116.002 1.675.01.87 3.14 1.727 6.287 2.6 9.43.187.66.323 1.335.405 2.017.907-3.857 2.146-7.632 3.186-11.457.483.002.966.002 1.45.005.765 2.722 1.48 5.457 2.239 8.182.28 1.085.641 2.155.755 3.277.82-3.852 1.99-7.627 2.918-11.454.55-.008 1.1-.008 1.65-.008-1.199 4.383-2.447 8.752-3.66 13.13h-1.787c-.88-3.144-1.751-6.29-2.64-9.429-.15-.508-.212-1.033-.258-1.558-.07.453-.134.912-.25 1.355-.9 3.2-1.812 6.396-2.686 9.602-.594.032-1.19.035-1.784.03-1.275-4.375-2.541-8.755-3.812-13.132zm23.562 5.234c.85-1.513 2.831-2.21 4.429-1.508 1.27.495 1.744 1.966 1.784 3.22.069 2.06.012 4.124.03 6.186-.496 0-.992 0-1.487-.003-.023-1.98.052-3.963-.035-5.943-.04-.98-.456-2.16-1.523-2.41-1.558-.47-3.114.934-3.164 2.475-.044 1.96-.002 3.921-.017 5.88h-1.487c.003-3.138.003-6.274 0-9.413h1.49c-.003.506-.005 1.01-.02 1.516zm22.396-1.749c1.326-.116 2.794.092 3.79 1.05 1.125 1.039 1.46 2.651 1.397 4.125-.017 1.326-.507 2.67-1.478 3.595-2.027 1.843-5.79 1.439-7.076-1.095-1.01-2.123-.807-5.061 1.038-6.674.662-.56 1.5-.815 2.33-1zm-.267 1.348c-2.183.671-2.552 3.523-1.87 5.398.542 1.664 2.657 2.403 4.176 1.625 1.028-.473 1.496-1.633 1.595-2.695.111-1.241.012-2.648-.865-3.617-.742-.837-2-1.018-3.036-.711zM96.724 8.72c.93-.064 1.876.025 2.75.367.243.46.055 1.065.112 1.583-1.043-.652-2.48-1.068-3.612-.404-.775.421-.812 1.667-.057 2.13 1.083.702 2.457.885 3.419 1.787 1.06 1.02.802 2.982-.439 3.748-1.508.96-3.495.867-5.076.133 0-.554-.002-1.11-.012-1.664 1.125.857 2.705 1.332 4.05.723.785-.394.825-1.6.134-2.108-1.083-.798-2.566-.924-3.528-1.92-.948-.956-.777-2.715.28-3.525.548-.503 1.288-.654 1.98-.85zm-50.369.24c.496-.002.991-.002 1.486-.002v9.414h-1.486c0-3.139.003-6.275 0-9.411zm33.636-.002h1.55c.615 2.242 1.21 4.489 1.836 6.728.126.421.174.857.218 1.293.701-2.7 1.588-5.35 2.383-8.023l1.356.007c.68 2.676 1.528 5.311 2.093 8.014.582-2.688 1.41-5.316 2.056-7.99.498-.024.996-.031 1.496-.036-.944 3.139-1.848 6.287-2.797 9.42h-1.54c-.67-2.55-1.537-5.053-2.08-7.632-.646 2.577-1.542 5.084-2.28 7.633h-1.49c-.93-3.139-1.882-6.27-2.801-9.414z"/><path d="M10 2.326A872.86 872.86 0 0 1 22 .59C22.003 4.086 22 11 22 11H10V2.326zM0 3.737c3-.462 6.011-.862 9.023-1.239.002 2.9 0 8.502 0 8.502H0V3.737zM0 12h9.023s.005 5.994 0 8.902c-3.004-.445-6.014-.834-9.023-1.241V12zm22 0v10.726A868.742 868.742 0 0 0 10 21c-.005-2.923.005-6.074 0-9h12z"/></g></svg>