<?xml version="1.0" encoding="UTF-8"?>
<svg width="618px" height="263px" viewBox="0 0 618 263" version="1.1" xmlns="http://www.w3.org/2000/svg" xmlns:xlink="http://www.w3.org/1999/xlink">
    <!-- Generator: sketchtool 46.2 (44496) - http://www.bohemiancoding.com/sketch -->
    <title>A3D1A195-31D2-406F-ADB2-9C36DAEBB768</title>
    <desc>Created with sketchtool.</desc>
    <defs>
        <path d="M9,26.0071104 C9,24.8986139 9.88989258,24 10.9997073,24 L43.0002927,24 C44.1047006,24 45,24.8957469 45,26.0071104 L45,116 L9,116 L9,26.0071104 Z" id="path-1"></path>
        <path d="M110,81.0045996 C110,79.8974898 110.889893,79 111.999707,79 L144.000293,79 C145.104701,79 146,79.8891112 146,81.0045996 L146,205 L110,205 L110,81.0045996 Z" id="path-2"></path>
        <path d="M195,32.9991501 C195,31.89505 195.889893,31 196.999707,31 L229.000293,31 C230.104701,31 231,31.8946972 231,32.9991501 L231,205 L195,205 L195,32.9991501 Z" id="path-3"></path>
        <path d="M279,26.0017575 C279,24.8962173 279.889893,24 280.999707,24 L313.000293,24 C314.104701,24 315,24.8885009 315,26.0017575 L315,205 L279,205 L279,26.0017575 Z" id="path-4"></path>
        <path d="M363,47.9959325 C363,46.8936094 363.889893,46 364.999707,46 L397.000293,46 C398.104701,46 399,46.8941902 399,47.9959325 L399,205 L363,205 L363,47.9959325 Z" id="path-5"></path>
        <path d="M13,26.0045996 C13,24.8974898 13.8898926,24 14.9997073,24 L47.0002927,24 C48.1047006,24 49,24.8891112 49,26.0045996 L49,150 L13,150 L13,26.0045996 Z" id="path-6"></path>
        <path d="M12,26.0092853 C12,24.8995877 12.8898926,24 13.9997073,24 L46.0002927,24 C47.1047006,24 48,24.8931221 48,26.0092853 L48,137 L12,137 L12,26.0092853 Z" id="path-7"></path>
    </defs>
    <g id="Page-1" stroke="none" stroke-width="1" fill="none" fill-rule="evenodd">
        <g id="Funkcje-/-Desktop" transform="translate(-510.000000, -1636.000000)">
            <g id="Group-13" transform="translate(486.000000, 1610.000000)">
                <g id="-g-Savings-Image" transform="translate(24.000000, 22.000000)">
                    <g id="Group-7">
                        <polygon id="Line" fill-opacity="0.3" fill="#0C5F53" fill-rule="nonzero" points="0 114 654 114 654 113 0 113"></polygon>
                        <polygon id="Line-Copy" fill-opacity="0.3" fill="#C5C5C5" fill-rule="nonzero" points="0 205 654 205 654 204 0 204"></polygon>
                        <g id="Group-10" transform="translate(5.000000, 89.000000)">
                            <g id="Rectangle">
                                <use fill="#DE5628" fill-rule="evenodd" xlink:href="#path-1"></use>
                                <path stroke="#F7FCFB" stroke-width="2" d="M8,26.0071104 C8,24.3456932 9.33822569,23 10.9997073,23 L43.0002927,23 C44.6585799,23 46,24.3450577 46,26.0071104 L46,117 L8,117 L8,26.0071104 Z"></path>
                            </g>
                            <text id="Mitto+" font-family="SegoeUI, Segoe UI 8" font-size="14" font-weight="normal" fill="#333333">
                                <tspan x="5.38476562" y="177">Mitto+</tspan>
                            </text>
                            <text id="1202,22-zł" font-family="SegoeUI-Semibold, Segoe UI" font-size="12" font-weight="500" fill="#333333">
                                <tspan x="0.295898438" y="13">1202,22 zł</tspan>
                            </text>
                        </g>
                        <text id="InPost" font-family="SegoeUI, Segoe UI 8" font-size="14" font-weight="normal" fill="#333333">
                            <tspan x="108.311523" y="266">InPost</tspan>
                        </text>
                        <text id="1422,00-zł" font-family="SegoeUI-Semibold, Segoe UI" font-size="12" font-weight="500" fill="#333333">
                            <tspan x="103.169922" y="68">1422,00 zł</tspan>
                        </text>
                        <text id="+202,22-zł" font-family="SegoeUI-Semibold, Segoe UI" font-size="12" font-weight="500" fill-opacity="0.39099298" fill="#0C5F53">
                            <tspan x="100.043945" y="245">+202,22 zł</tspan>
                        </text>
                        <g id="Rectangle-Copy">
                            <use fill="#54D2B6" fill-rule="evenodd" xlink:href="#path-2"></use>
                            <path stroke="#F7FCFB" stroke-width="2" d="M109,81.0045996 C109,79.3442928 110.338507,78 111.999707,78 L144.000293,78 C145.65978,78 147,79.3396199 147,81.0045996 L147,206 L109,206 L109,81.0045996 Z"></path>
                        </g>
                        <text id="DHL" font-family="SegoeUI, Segoe UI 8" font-size="14" font-weight="normal" fill="#333333">
                            <tspan x="200.327148" y="266">DHL</tspan>
                        </text>
                        <text id="2318,00-zł" font-family="SegoeUI-Semibold, Segoe UI" font-size="12" font-weight="500" fill="#333333">
                            <tspan x="189.295898" y="20">2318,00 zł</tspan>
                        </text>
                        <text id="+1102,22-zł" font-family="SegoeUI-Semibold, Segoe UI" font-size="12" font-weight="500" fill-opacity="0.39099298" fill="#0C5F53">
                            <tspan x="184.046875" y="245">+1102,22 zł</tspan>
                        </text>
                        <g id="Rectangle-Copy-2">
                            <use fill="#54D2B6" fill-rule="evenodd" xlink:href="#path-3"></use>
                            <path stroke="#F7FCFB" stroke-width="2" d="M194,32.9991501 C194,31.3412506 195.339119,30 196.999707,30 L229.000293,30 C230.657018,30 232,31.3424446 232,32.9991501 L232,206 L194,206 L194,32.9991501 Z"></path>
                        </g>
                        <text id="UPS" font-family="SegoeUI, Segoe UI 8" font-size="14" font-weight="normal" fill="#333333">
                            <tspan x="285.051758" y="266">UPS</tspan>
                        </text>
                        <text id="2244,20-zł" font-family="SegoeUI-Semibold, Segoe UI" font-size="12" font-weight="500" fill="#333333">
                            <tspan x="274.126953" y="13">2244,20 zł</tspan>
                        </text>
                        <text id="+1002,22-zł" font-family="SegoeUI-Semibold, Segoe UI" font-size="12" font-weight="500" fill-opacity="0.39099298" fill="#0C5F53">
                            <tspan x="267.129883" y="245">+1002,22 zł</tspan>
                        </text>
                        <g id="Rectangle-Copy-3">
                            <use fill="#54D2B6" fill-rule="evenodd" xlink:href="#path-4"></use>
                            <path stroke="#F7FCFB" stroke-width="2" d="M278,26.0017575 C278,24.3427066 279.338826,23 280.999707,23 L313.000293,23 C314.659288,23 316,24.3385134 316,26.0017575 L316,206 L278,206 L278,26.0017575 Z"></path>
                        </g>
                        <text id="Patron" font-family="SegoeUI, Segoe UI 8" font-size="14" font-weight="normal" fill="#333333">
                            <tspan x="361.149414" y="266">Patron</tspan>
                        </text>
                        <text id="1920,33-zł" font-family="SegoeUI-Semibold, Segoe UI" font-size="12" font-weight="500" fill="#333333">
                            <tspan x="356.27832" y="35">1920,33 zł</tspan>
                        </text>
                        <text id="+700,22-zł" font-family="SegoeUI-Semibold, Segoe UI" font-size="12" font-weight="500" fill-opacity="0.39099298" fill="#0C5F53">
                            <tspan x="351.158203" y="245">+700,22 zł</tspan>
                        </text>
                        <g id="Rectangle-Copy-4">
                            <use fill="#54D2B6" fill-rule="evenodd" xlink:href="#path-5"></use>
                            <path stroke="#F7FCFB" stroke-width="2" d="M362,47.9959325 C362,46.3394529 363.33948,45 364.999707,45 L397.000293,45 C398.656407,45 400,46.3413266 400,47.9959325 L400,206 L362,206 L362,47.9959325 Z"></path>
                        </g>
                        <g id="Group-6" transform="translate(442.000000, 55.000000)">
                            <text id="Sendit" font-family="SegoeUI, Segoe UI 8" font-size="14" font-weight="normal" fill="#333333">
                                <tspan x="11.4697266" y="211">Sendit</tspan>
                            </text>
                            <text id="1620,33-zł" font-family="SegoeUI-Semibold, Segoe UI" font-size="12" font-weight="500" fill="#333333">
                                <tspan x="6.27832031" y="13">1620,33 zł</tspan>
                            </text>
                            <text id="+402,22-zł" font-family="SegoeUI-Semibold, Segoe UI" font-size="12" font-weight="500" fill-opacity="0.39099298" fill="#0C5F53">
                                <tspan x="0.41796875" y="190">+402,22 zł</tspan>
                            </text>
                            <text id="+14%" font-family="SegoeUI-Semibold, Segoe UI" font-size="12" font-weight="500" fill-opacity="0.649739583" fill="#000000">
                                <tspan x="13.9208984" y="171">+14%</tspan>
                            </text>
                            <g id="Rectangle-Copy-5">
                                <use fill="#0C5F53" fill-rule="evenodd" xlink:href="#path-6"></use>
                                <path stroke="#F7FCFB" stroke-width="2" d="M12,26.0045996 C12,24.3442928 13.3385074,23 14.9997073,23 L47.0002927,23 C48.6597801,23 50,24.3396199 50,26.0045996 L50,151 L12,151 L12,26.0045996 Z"></path>
                            </g>
                        </g>
                        <g id="Group-8" transform="translate(529.000000, 68.000000)">
                            <text id="Allekurier" font-family="SegoeUI, Segoe UI 8" font-size="14" font-weight="normal" fill="#333333">
                                <tspan x="0.76953125" y="198">Allekurier</tspan>
                            </text>
                            <text id="1570,33-zł" font-family="SegoeUI-Semibold, Segoe UI" font-size="12" font-weight="500" fill="#333333">
                                <tspan x="6.41015625" y="13">1570,33 zł</tspan>
                            </text>
                            <text id="+302,22-zł" font-family="SegoeUI-Semibold, Segoe UI" font-size="12" font-weight="500" fill-opacity="0.39099298" fill="#0C5F53">
                                <tspan x="1.04394531" y="177">+302,22 zł</tspan>
                            </text>
                            <text id="+12%" font-family="SegoeUI-Semibold, Segoe UI" font-size="12" font-weight="500" fill-opacity="0.649739583" fill="#000000">
                                <tspan x="14.546875" y="158">+12%</tspan>
                            </text>
                            <g id="Rectangle-Copy-6">
                                <use fill="#0C5F53" fill-rule="evenodd" xlink:href="#path-7"></use>
                                <path stroke="#F7FCFB" stroke-width="2" d="M11,26.0092853 C11,24.3469057 12.3379816,23 13.9997073,23 L46.0002927,23 C47.659785,23 49,24.3436411 49,26.0092853 L49,138 L11,138 L11,26.0092853 Z"></path>
                            </g>
                        </g>
                        <text id="+20%" font-family="SegoeUI-Semibold, Segoe UI" font-size="12" font-weight="500" fill-opacity="0.649739583" fill="#000000">
                            <tspan x="112.629883" y="226">+20%</tspan>
                        </text>
                        <text id="+23%" font-family="SegoeUI-Semibold, Segoe UI" font-size="12" font-weight="500" fill-opacity="0.649739583" fill="#000000">
                            <tspan x="198.129883" y="226">+23%</tspan>
                        </text>
                        <text id="+22%" font-family="SegoeUI-Semibold, Segoe UI" font-size="12" font-weight="500" fill-opacity="0.649739583" fill="#000000">
                            <tspan x="282.129883" y="226">+22%</tspan>
                        </text>
                        <text id="+21,3%" font-family="SegoeUI-Semibold, Segoe UI" font-size="12" font-weight="500" fill-opacity="0.649739583" fill="#000000">
                            <tspan x="359.768555" y="226">+21,3%</tspan>
                        </text>
                    </g>
                </g>
            </g>
        </g>
    </g>
</svg>