<?xml version="1.0" encoding="UTF-8"?>
<svg width="618px" height="274px" viewBox="0 0 618 274" version="1.1" xmlns="http://www.w3.org/2000/svg" xmlns:xlink="http://www.w3.org/1999/xlink">
    <!-- Generator: sketchtool 46.2 (44496) - http://www.bohemiancoding.com/sketch -->
    <title>BC59BE80-844E-4D8F-8465-CC0BF8032BE2</title>
    <desc>Created with sketchtool.</desc>
    <defs>
        <rect id="path-1" x="0" y="0" width="202" height="220" rx="5"></rect>
        <rect id="path-3" x="0" y="0" width="202" height="220" rx="5"></rect>
        <rect id="path-5" x="0" y="0" width="202" height="220" rx="5"></rect>
        <rect id="path-7" x="0" y="0" width="202" height="220" rx="5"></rect>
    </defs>
    <g id="Page-1" stroke="none" stroke-width="1" fill="none" fill-rule="evenodd">
        <g id="Funkcje-/-Desktop" transform="translate(-510.000000, -678.000000)">
            <g id="Group-6" transform="translate(486.000000, 660.000000)">
                <g id="-g-Suggestions-Image" transform="translate(24.000000, 18.000000)">
                    <g id="Group-5" transform="translate(452.000000, 6.000000)">
                        <mask id="mask-2" fill="white">
                            <use xlink:href="#path-1"></use>
                        </mask>
                        <g id="Rectangle-5-Copy-3">
                            <use fill="#FFFFFF" fill-rule="evenodd" xlink:href="#path-1"></use>
                            <rect stroke="#DE1C32" stroke-width="1" x="0.5" y="0.5" width="201" height="219" rx="5"></rect>
                        </g>
                        <rect id="Rectangle" fill="#DE1C32" mask="url(#mask-2)" x="0" y="0" width="202" height="77"></rect>
                        <text id="Patron-Service" mask="url(#mask-2)" font-family="Montserrat-SemiBold, Montserrat" font-size="20" font-weight="500" line-spacing="19" fill="#FFFFFF">
                            <tspan x="30" y="48">Patron</tspan>
                            <tspan x="98.3" y="48.1800537" font-family="Montserrat-Medium, Montserrat" font-weight="400"> </tspan>
                            <tspan x="103.26" y="48.8401489" font-family="Montserrat-Light, Montserrat" font-weight="300">Service</tspan>
                        </text>
                        <g id="Group-Copy-2" mask="url(#mask-2)">
                            <g transform="translate(16.000000, 86.000000)">
                                <polygon id="Line" fill="#EAEAEA" fill-rule="nonzero" points="0 71 170 71 170 70 0 70"></polygon>
                                <text id="Label-Copy-8" fill="none" font-family="SegoeUI, Segoe UI 8" font-size="14" font-weight="normal">
                                    <tspan x="55" y="54" fill="#969696">brutto</tspan>
                                </text>
                                <g id="Group-11" stroke-width="1" fill="none" fill-rule="evenodd" transform="translate(0.000000, 79.000000)" font-size="14">
                                    <text id="Label-Copy-4" font-family="SegoeUI, Segoe UI 8" font-weight="normal" fill="#969696">
                                        <tspan x="0" y="15">Szacowane doręczenie</tspan>
                                    </text>
                                    <text id="Label-Copy-7" font-family="SegoeUI-Semibold, Segoe UI" font-weight="500" fill="#333333">
                                        <tspan x="0" y="35">1 dzień roboczy</tspan>
                                    </text>
                                </g>
                                <text id="Label-Copy-5" fill="none" font-family="SegoeUI-Semibold, Segoe UI" font-size="14" font-weight="500">
                                    <tspan x="0" y="54" fill="#333333">11,19 zł</tspan>
                                </text>
                                <text id="Label-Copy-6" fill="none" font-family="SegoeUI-Semibold, Segoe UI" font-size="28" font-weight="500">
                                    <tspan x="0" y="30" fill="#333333">9,10 zł</tspan>
                                </text>
                            </g>
                        </g>
                    </g>
                    <rect id="Rectangle-8" fill="#FDEEBC" x="220" y="0" width="214" height="274" rx="8"></rect>
                    <text id="Najczęściej-wybieran" font-family="SegoeUI, Segoe UI 8" font-size="11" font-weight="normal" line-spacing="15" fill="#494125">
                        <tspan x="264" y="246">Najczęściej wybierany przez </tspan>
                        <tspan x="264" y="261">branżę kosmetyczną</tspan>
                    </text>
                    <g id="Group-3" transform="translate(0.000000, 6.000000)">
                        <mask id="mask-4" fill="white">
                            <use xlink:href="#path-3"></use>
                        </mask>
                        <use id="Rectangle-5-Copy" fill="#F9C623" xlink:href="#path-3"></use>
                        <g id="Group-Copy" mask="url(#mask-4)">
                            <g transform="translate(16.000000, 86.000000)">
                                <text id="Label-Copy-4" fill="none" font-family="SegoeUI, Segoe UI 8" font-size="14" font-weight="normal">
                                    <tspan x="0" y="94" fill="#947615">Szacowane doręczenie</tspan>
                                </text>
                                <text id="Label-Copy-8" fill="none" font-family="SegoeUI, Segoe UI 8" font-size="14" font-weight="normal">
                                    <tspan x="55" y="54" fill="#947615">brutto</tspan>
                                </text>
                                <text id="Label-Copy-7" fill="none" font-family="SegoeUI-Semibold, Segoe UI" font-size="14" font-weight="500">
                                    <tspan x="0" y="114" fill="#333333">1 dzień roboczy</tspan>
                                </text>
                                <text id="Label-Copy-5" fill="none" font-family="SegoeUI-Semibold, Segoe UI" font-size="14" font-weight="500">
                                    <tspan x="0" y="54" fill="#333333">13,94 zł</tspan>
                                </text>
                                <polygon id="Line" fill="#C79F1C" fill-rule="nonzero" points="0 71 170 71 170 70 0 70"></polygon>
                                <text id="Label-Copy-6" fill="none" font-family="SegoeUI-Semibold, Segoe UI" font-size="28" font-weight="500">
                                    <tspan x="0" y="30" fill="#333333">11,34 zł</tspan>
                                </text>
                            </g>
                        </g>
                        <rect id="Rectangle" fill="#F9C623" mask="url(#mask-4)" x="0" y="0" width="202" height="77"></rect>
                        <text id="DHL" mask="url(#mask-4)" font-family="Montserrat-BlackItalic, Montserrat" font-size="32" font-style="italic" font-weight="700" fill="#C52038">
                            <tspan x="66.14" y="50">DHL</tspan>
                        </text>
                        <polygon id="Rectangle-3" fill="#353535" mask="url(#mask-4)" points="0 0 55 0 0 55"></polygon>
                        <g id="Icon-Selected-" mask="url(#mask-4)" stroke-width="3" stroke="#FFFFFF">
                            <g transform="translate(8.000000, 4.000000)" id="Path-3">
                                <polyline points="0 12.5 7.66666667 20 23 5"></polyline>
                            </g>
                        </g>
                    </g>
                    <g id="Group-4" transform="translate(226.000000, 6.000000)">
                        <mask id="mask-6" fill="white">
                            <use xlink:href="#path-5"></use>
                        </mask>
                        <g id="Rectangle-5-Copy-2">
                            <use fill="#FFFFFF" fill-rule="evenodd" xlink:href="#path-5"></use>
                            <rect stroke="#351C15" stroke-width="1" x="0.5" y="0.5" width="201" height="219" rx="5"></rect>
                        </g>
                        <g id="Group-Copy" mask="url(#mask-6)">
                            <g transform="translate(16.000000, 0.000000)">
                                <text id="Label-Copy-8" fill="none" font-family="SegoeUI, Segoe UI 8" font-size="14" font-weight="normal">
                                    <tspan x="55" y="140" fill="#969696">brutto</tspan>
                                </text>
                                <g id="Group-10" stroke-width="1" fill="none" fill-rule="evenodd" transform="translate(0.000000, 165.000000)" font-size="14">
                                    <text id="Label-Copy-4" font-family="SegoeUI, Segoe UI 8" font-weight="normal" fill="#969696">
                                        <tspan x="0" y="15">Szacowane doręczenie</tspan>
                                    </text>
                                    <text id="Label-Copy-7" font-family="SegoeUI-Semibold, Segoe UI" font-weight="500" fill="#333333">
                                        <tspan x="0" y="35">1 dzień roboczy</tspan>
                                    </text>
                                </g>
                                <text id="Label-Copy-5" fill="none" font-family="SegoeUI-Semibold, Segoe UI" font-size="14" font-weight="500">
                                    <tspan x="0" y="140" fill="#333333">12,55 zł</tspan>
                                </text>
                                <text id="Label-Copy-6" fill="none" font-family="SegoeUI-Semibold, Segoe UI" font-size="28" font-weight="500">
                                    <tspan x="0" y="116" fill="#333333">10,21 zł</tspan>
                                </text>
                                <g id="Group-5" stroke-width="1" fill="none" fill-rule="evenodd" transform="translate(210.000000, 0.000000)">
                                    <mask id="mask-8" fill="white">
                                        <use xlink:href="#path-7"></use>
                                    </mask>
                                    <use id="Rectangle-5-Copy-3" fill="#D5DBDA" xlink:href="#path-7"></use>
                                    <rect id="Rectangle" fill="#8D9191" mask="url(#mask-8)" x="0" y="0" width="202" height="77"></rect>
                                    <text id="Patron-Service-Copy" mask="url(#mask-8)" font-family="Montserrat-SemiBold, Montserrat" font-size="20" font-weight="500" line-spacing="19" fill="#FFFFFF">
                                        <tspan x="30" y="48">Patron</tspan>
                                        <tspan x="98.3" y="48.1800537" font-family="Montserrat-Medium, Montserrat" font-weight="400"> </tspan>
                                        <tspan x="103.26" y="48.8401489" font-family="Montserrat-Light, Montserrat" font-weight="300">Service</tspan>
                                    </text>
                                    <g id="Group-Copy-2" mask="url(#mask-8)">
                                        <g transform="translate(16.000000, 156.000000)">
                                            <text id="Label-Copy-4" fill="none" font-family="SegoeUI, Segoe UI 8" font-size="14" font-weight="normal">
                                                <tspan x="0" y="24" fill="#6D6D6D">Przewoźnik niedostępny</tspan>
                                                <tspan x="0" y="43" fill="#6D6D6D">dla tej usługi</tspan>
                                            </text>
                                            <polygon id="Line" fill-opacity="0.169355752" fill="#000000" fill-rule="nonzero" points="0 1 170 1 170 0 0 0"></polygon>
                                        </g>
                                    </g>
                                </g>
                                <polygon id="Line" fill="#EAEAEA" fill-rule="nonzero" points="0 157 170 157 170 156 0 156"></polygon>
                            </g>
                        </g>
                        <rect id="Rectangle" fill="#351C15" mask="url(#mask-6)" x="0" y="0" width="202" height="77"></rect>
                        <text id="UPS" mask="url(#mask-6)" font-family="Montserrat-ExtraBold, Montserrat" font-size="32" font-weight="600" letter-spacing="1" fill="#FFB500">
                            <tspan x="66.172" y="50">UPS</tspan>
                        </text>
                    </g>
                    <g id="Icon-/-Idea" transform="translate(232.000000, 235.000000)" fill-rule="nonzero" fill="#494125">
                        <path d="M3.109375,2.2929695 L2.0429695,3.359375 L2.5761715,3.8867195 L3.6367195,4.947266 L4.1640625,5.4804695 L5.2304695,4.4140625 L4.697266,3.8867195 L3.6367195,2.8261715 L3.109375,2.2929695 Z M19.890625,2.2929695 L19.363282,2.8261715 L17.775391,4.4140625 L18.8359375,5.4804695 L19.363282,4.947266 L20.9511715,3.359375 L19.890625,2.2929695 Z M11.5,3.5 C8.1953125,3.5 5.5,6.1953125 5.5,9.5 C5.5,11.5742195 6.4082035,12.769532 7.140625,13.7890625 C7.878907,14.802734 8.5,15.6640625 8.5,17.75 L8.5,19.25 C8.5,20.222657 9.1386715,21.0546875 10.0117195,21.359375 C10.005859,21.40625 10,21.453125 10,21.5 C10,22.3261715 10.6738285,23 11.5,23 C12.3261715,23 13,22.3261715 13,21.5 C13,21.453125 13,21.40625 12.994141,21.359375 C13.8671875,21.0488285 14.5,20.222657 14.5,19.25 L14.5,17.75 C14.5,15.6640625 15.1210945,14.802734 15.859375,13.7890625 C16.5917965,12.769532 17.5,11.5742195 17.5,9.5 C17.5,6.1953125 14.8046875,3.5 11.5,3.5 Z M11.5,5 C13.9960945,5 16,7.003907 16,9.5 C16,11.175782 15.4082035,11.8554695 14.640625,12.8984375 C13.978516,13.818359 13.322266,15.113282 13.140625,17 L9.859375,17 C9.677734,15.113282 9.021484,13.818359 8.359375,12.8984375 C7.5917965,11.8554695 7,11.175782 7,9.5 C7,7.003907 9.003907,5 11.5,5 Z M1,9.5 L1,11 L4,11 L4,9.5 L1,9.5 Z M19,9.5 L19,11 L22,11 L22,9.5 L19,9.5 Z M4.1640625,15.019532 L3.6367195,15.552734 L2.5761715,16.613282 L2.0429695,17.140625 L3.109375,18.2011715 L4.697266,16.613282 L5.2304695,16.0859375 L4.1640625,15.019532 Z M18.8359375,15.019532 L17.775391,16.0859375 L19.890625,18.2011715 L20.9511715,17.140625 L19.363282,15.552734 L18.8359375,15.019532 Z M10,18.5 L13,18.5 L13,19.25 C13,19.671875 12.671875,20 12.25,20 L10.75,20 C10.328125,20 10,19.671875 10,19.25 L10,18.5 Z" id="Shape"></path>
                    </g>
                </g>
            </g>
        </g>
    </g>
</svg>